PathFileType	4	(X/Y/Z)	/home/abdul/Desktop/myosuite/custom_workspace/IK/output/S11_12_3.trc
DataRate	CameraRate	NumFrames	NumMarkers	Units	OrigDataRate	OrigDataStartFrame	OrigNumFrames
200.0	200.0	39	3	mm	200.0	1	1976
Frame#	Time	V_Shoulder			V_Elbow			V_Wrist		
		X1	Y1	Z1	X2	Y2	Z2	X3	Y3	Z3

1	0.0	-112.65377316257627	587.0174355901519	267.68677796424225	-268.59529245549584	402.8843694913055	22.145723009266288	-199.97510634274403	190.54059318206816	58.884955806578475
2	0.005	-112.65385608259572	587.0106301740694	267.67904340622516	-268.6006639548613	402.8809686436465	22.15115636263735	-199.9646931661278	190.5404841657944	58.89789187819302
3	0.01	-112.65403466277525	587.0036398565875	267.6706957855287	-268.606093614566	402.877434764951	22.156363165020295	-199.95394826157428	190.54035536954177	58.9110124679452
4	0.015	-112.65431138654914	586.9964623646039	267.66172101653837	-268.6115757230434	402.8737721400714	22.1613144821926	-199.94288007313642	190.54021229377503	58.92427436478916
5	0.02	-112.65468834764083	586.9890952421296	267.65210622945307	-268.6171044998565	402.8699856584076	22.165981068861093	-199.9314982189298	190.54006090763284	58.93763162998185
6	0.025	-112.6551672147716	586.9815358367044	267.6418398766496	-268.62267411377405	402.866080822061	22.17033346808094	-199.91981351646416	190.53990764151115	58.951035642306955
7	0.03	-112.65574919588947	586.9737812865447	267.63091183996636	-268.62827870072385	402.86206375200186	22.174342115883512	-199.90783800610959	190.53975937649014	58.96443515588817
8	0.035	-112.65643500201622	586.9658285085152	267.61931353856943	-268.63391238151524	402.85794119211937	22.177977450946294	-199.8955849725279	190.53962343046717	58.97777637097953
9	0.04	-112.65722481081589	586.9576741870166	267.6070380370455	-268.6395692792247	402.8537205110306	22.181210029117707	-199.88306896389017	190.53950754086827	58.99100301809335
10	0.045	-112.65811822999522	586.9493147638783	267.59408015334805	-268.64524353614263	402.8494097015233	22.184010642588614	-199.87030580868998	190.5394198438225	59.00405645579643
11	0.05	-112.65911426065105	586.9407464293404	267.5804365662081	-268.65092933018326	402.8450173775131	22.186350443481647	-199.8573126299516	190.53936884969568	59.0168757824724
12	0.055	-112.66021126068654	586.9319651142052	267.566105921609	-268.65662089066313	402.84055276839473	22.188201071608923	-199.8441078566224	190.53936341489475	59.029397962313844
13	0.06	-112.66140690842263	586.9229664832386	267.551088937907	-268.66231251335967	402.836025710676	22.18953478612761	-199.83071123192795	190.53941270986806	59.04155796576911
14	0.065	-112.66269816653721	586.9137459298909	267.53538850917164	-268.66799857476497	402.83144663678297	22.190324600802157	-199.81714381845825	190.53952618324197	59.05328892462866
15	0.07	-112.66408124646871	586.90429857241	267.51900980630745	-268.6736735454568	402.82682656093266	22.19054442256055	-199.80342799974432	190.53971352205272	59.06452230189224
16	0.075	-112.66555157342566	586.8946192514073	267.50196037550904	-268.67933200251423	402.82217706197406	22.19016919301106	-199.78958747807445	190.53998460804758	59.075188076511836
17	0.08	-112.66710375214804	586.8847025289368	267.48425023359556	-268.6849686409098	402.81751026310417	22.189175032564226	-199.77564726829144	190.54034947004914	59.085214943056414
18	0.085	-112.66873153356983	586.8745426891415	267.4658919597635	-268.69057828381796	402.81283880837395	22.187539386783598	-199.76163368730295	190.54081823239454	59.094530526292445
19	0.09	-112.67042778253489	586.8641337405136	267.4469007832925	-268.6961558917826	402.8081758359041	22.185241174566883	-199.74757433903085	190.54140105948176	59.10306161061949
20	0.095	-112.6721844467218	586.8534694198111	267.42729466673717	-268.7016965706951	402.80353494774124	22.182260937737823	-199.73349809451733	190.54210809647384	59.11073438424255
21	0.1	-112.67399252693478	586.8425431976658	267.4070943841353	-268.7071955785374	402.7989301762915	22.178580991607234	-199.71943506690047	190.5429494062344	59.117474697902814
22	0.105	-112.67584204891936	586.8313482859118	267.38632359376567	-268.7126483308521	402.794375947277	22.174185576040617	-199.70541658096624	190.54393490258747	59.12320833792582
23	0.11	-112.67772203686265	586.8198776466561	267.3650089049905	-268.7180504049047	402.7898870391746	22.16906100654819	-199.6914751369801	190.54507428001574	59.12786131328039
24	0.115	-112.67962048873805	586.8081240031074	267.3431799387228	-268.7233975425099	402.7854785391005	22.16319582489254	-199.67764436849802	190.54637693993436	59.131360156274724
25	0.12	-112.68152435365334	586.796079852168	267.32086938106573	-268.72868565149696	402.78116579512096	22.156580948688763	-199.6639589938561	190.5478519136969	59.13363223644597
26	0.125	-112.68341951136064	586.7837374787903	267.298113029679	-268.73391080579466	402.7769643649765	22.149209819452132	-199.65045476103586	190.5495077825142	59.13460608712788
27	0.13	-112.68529075408401	586.7710889720898	267.27494983244054	-268.7390692441185	402.77288996122263	22.141078548529364	-199.63716838560532	190.55135259448681	59.13421174410762
28	0.135	-112.68712177081802	586.7581262431972	267.2514219179819	-268.7441573672494	402.76895839280047	22.13218606033146	-199.62413748143683	190.55339377897306	59.132381095707586
29	0.14	-112.68889513424715	586.7448410448242	267.2275746176928	-268.7491717338922	402.765185503066	22.122534232269146	-199.61140048390894	190.5556380585379	59.12904824355147
30	0.145	-112.69059229043144	586.7312249925117	267.2034564788073	-268.75410905510887	402.7615871043186	22.11212803077602	-199.598996565304	190.5580913587471	59.12414987319647
31	0.15	-112.69219355139842	586.7172695875166	267.17911926820324	-268.75896618732173	402.7581789088862	22.10097564279021	-199.5869655421235	190.56075871609198	59.11762563373429
32	0.155	-112.69367809077562	586.7029662412873	267.15461796656837	-268.7637401238833	402.754976456838	22.08908860205252	-199.5753477740514	190.5636441843507	59.10941852538511
33	0.16	-112.69502394259149	586.688306301465	267.1300107526098	-268.768427985213	402.7519950404138	22.076481909567775	-199.56418405431089	190.56675073971053	59.09947529402888
34	0.165	-112.69620800336372	586.6732810793468	267.10535897701067	-268.77302700750136	402.74924962527064	22.06317414756703	-199.55351549117205	190.57008018499448	59.087746831539434
35	0.17	-112.69720603758724	586.657881878727	267.08072712586335	-268.77753452998127	402.7467547686696	22.049187586301166	-199.54338338038815	190.57363305335326	59.074188580707315
36	0.175	-112.69799268672325	586.6421000260335	267.0561827733407	-268.7819479807698	402.744524534741	22.034548282991498	-199.53382906835657	190.57740851179966	59.05876094345999
37	0.18	-112.698541481782	586.6259269016606	267.0317965233983	-268.78626486128076	402.74257240698057	22.019286172260625	-199.5248938058233	190.5814042649776	59.041429691010585
38	0.185	-112.69882485958021	586.6093539723938	267.00764194033235	-268.79048272921034	402.7409111981525	22.003435147366943	-199.51661859197594	190.58561645957366	59.02216637449132
39	0.19	-112.69881418274373	586.5923728248114	266.98379546805637	-268.7945991800976	402.73955295778956	21.98703313156917	-199.50904400879728	190.59003958978832	59.000948734554484
